<svg width="24" height="23" viewBox="0 0 24 23" fill="none" xmlns="http://www.w3.org/2000/svg">
<g clip-path="url(#clip0_89_165)">
<path d="M23.706 11.4265C23.706 5.11585 18.5901 0 12.2795 0C5.96887 0 0.853027 5.11585 0.853027 11.4265C0.853027 17.1297 5.03154 21.857 10.4941 22.7141V14.7294H7.59286V11.4265H10.4941V8.90908C10.4941 6.04532 12.2 4.46347 14.8101 4.46347C16.0602 4.46347 17.3678 4.68664 17.3678 4.68664V7.49862H15.927C14.5076 7.49862 14.0649 8.37944 14.0649 9.28311V11.4265H17.2339L16.7273 14.7294H14.0649V22.7141C19.5275 21.857 23.706 17.1298 23.706 11.4265Z" fill="#1877F2"/>
<path d="M16.7273 14.7289L17.2339 11.4259H14.0648V9.28254C14.0648 8.37878 14.5075 7.49805 15.927 7.49805H17.3678V4.68606C17.3678 4.68606 16.0601 4.46289 14.8099 4.46289C12.2 4.46289 10.494 6.04474 10.494 8.9085V11.4259H7.59277V14.7289H10.494V22.7136C11.0846 22.8061 11.6816 22.8525 12.2794 22.8524C12.8772 22.8525 13.4742 22.8061 14.0648 22.7136V14.7289H16.7273Z" fill="white"/>
</g>
<defs>
<clipPath id="clip0_89_165">
<rect width="22.8529" height="22.8529" fill="white" transform="translate(0.853027)"/>
</clipPath>
</defs>
</svg>
