<svg width="23" height="23" viewBox="0 0 23 23" fill="none" xmlns="http://www.w3.org/2000/svg">
<g clip-path="url(#clip0_89_155)">
<path d="M7.96102 0.751076C5.67766 1.5432 3.70849 3.04666 2.34275 5.04065C0.977019 7.03463 0.286705 9.41403 0.373209 11.8293C0.459713 14.2446 1.31847 16.5686 2.82336 18.4597C4.32824 20.3509 6.39992 21.7097 8.73409 22.3364C10.6265 22.8247 12.6091 22.8461 14.5116 22.3989C16.2351 22.0118 17.8285 21.1837 19.1358 19.9958C20.4964 18.7216 21.484 17.1007 21.9924 15.3073C22.545 13.3571 22.6433 11.3062 22.2798 9.312H11.6532V13.7201H17.8074C17.6844 14.4232 17.4209 15.0942 17.0325 15.693C16.6441 16.2919 16.1389 16.8062 15.5471 17.2052C14.7956 17.7023 13.9485 18.0368 13.0601 18.1872C12.1691 18.3528 11.2552 18.3528 10.3642 18.1872C9.46108 18.0004 8.60679 17.6277 7.85569 17.0927C6.64903 16.2386 5.743 15.0251 5.26688 13.6255C4.78271 12.1997 4.78271 10.6539 5.26688 9.22809C5.60579 8.22866 6.16606 7.31868 6.90586 6.56608C7.75247 5.689 8.82432 5.06206 10.0038 4.75405C11.1833 4.44603 12.4248 4.46884 13.5921 4.81997C14.5041 5.0999 15.338 5.589 16.0274 6.24828C16.7213 5.55793 17.414 4.8658 18.1056 4.17188C18.4627 3.79873 18.8519 3.44344 19.2036 3.06137C18.1512 2.08204 16.916 1.32 15.5686 0.81892C13.1149 -0.0720053 10.4302 -0.0959481 7.96102 0.751076Z" fill="white"/>
<path d="M7.96125 0.750967C10.4302 -0.0966327 13.1149 -0.0733202 15.5688 0.817026C16.9164 1.32151 18.1511 2.08722 19.202 3.07018C18.845 3.45226 18.4682 3.80933 18.104 4.18069C17.4113 4.87223 16.7192 5.56139 16.0276 6.24817C15.3382 5.58889 14.5043 5.09979 13.5924 4.81986C12.4254 4.4675 11.1839 4.44337 10.0041 4.75013C8.82434 5.05688 7.75184 5.68267 6.9043 6.55883C6.16449 7.31143 5.60423 8.22141 5.26531 9.22084L1.56421 6.35529C2.88898 3.72821 5.18274 1.71869 7.96125 0.750967Z" fill="#E33629"/>
<path d="M0.582223 9.19423C0.781153 8.20833 1.11142 7.25356 1.56418 6.35547L5.26529 9.22815C4.78112 10.654 4.78112 12.1997 5.26529 13.6256C4.03218 14.5778 2.79848 15.5347 1.56418 16.4965C0.430734 14.2403 0.0850509 11.6697 0.582223 9.19423Z" fill="#F8BD00"/>
<path d="M11.6531 9.30957H22.2798C22.6433 11.3037 22.5449 13.3547 21.9923 15.3049C21.4839 17.0983 20.4963 18.7192 19.1357 19.9933C17.9413 19.0613 16.7415 18.1365 15.5471 17.2045C16.1392 16.8051 16.6447 16.2902 17.0331 15.6908C17.4215 15.0913 17.6848 14.4196 17.8074 13.7159H11.6531C11.6514 12.2483 11.6531 10.7789 11.6531 9.30957Z" fill="#587DBD"/>
<path d="M1.56226 16.4959C2.79655 15.5437 4.03025 14.5867 5.26336 13.625C5.74043 15.0251 6.64776 16.2386 7.85574 17.0922C8.60919 17.6247 9.46532 17.9944 10.3696 18.1777C11.2606 18.3434 12.1745 18.3434 13.0655 18.1777C13.9539 18.0274 14.801 17.6929 15.5525 17.1958C16.747 18.1277 17.9467 19.0526 19.1412 19.9845C17.8341 21.1731 16.2407 22.0018 14.517 22.3895C12.6145 22.8367 10.6319 22.8153 8.73951 22.327C7.24282 21.9274 5.84482 21.2229 4.63312 20.2577C3.35061 19.2395 2.30311 17.9563 1.56226 16.4959Z" fill="#319F43"/>
</g>
<defs>
<clipPath id="clip0_89_155">
<rect width="22.8529" height="22.8529" fill="white"/>
</clipPath>
</defs>
</svg>
